<?xml version="1.0" encoding="UTF-8" standalone="no"?>
<!-- Created with Inkscape (http://www.inkscape.org/) -->

<svg
   width="300"
   height="180"
   viewBox="0 0 79.374998 47.625001"
   version="1.1"
   id="svg5"
   inkscape:version="1.2 (dc2aedaf03, 2022-05-15)"
   sodipodi:docname="logo-amgtech.svg"
   inkscape:export-filename="logo-amgtech2.png"
   inkscape:export-xdpi="160"
   inkscape:export-ydpi="160"
   xmlns:inkscape="http://www.inkscape.org/namespaces/inkscape"
   xmlns:sodipodi="http://sodipodi.sourceforge.net/DTD/sodipodi-0.dtd"
   xmlns="http://www.w3.org/2000/svg"
   xmlns:svg="http://www.w3.org/2000/svg">
  <sodipodi:namedview
     id="namedview7"
     pagecolor="#ffffff"
     bordercolor="#666666"
     borderopacity="1.0"
     inkscape:pageshadow="2"
     inkscape:pageopacity="0.0"
     inkscape:pagecheckerboard="0"
     inkscape:document-units="mm"
     showgrid="false"
     showguides="true"
     inkscape:guide-bbox="true"
     units="px"
     inkscape:zoom="3.1899563"
     inkscape:cx="193.57632"
     inkscape:cy="83.543464"
     inkscape:window-width="1920"
     inkscape:window-height="991"
     inkscape:window-x="-9"
     inkscape:window-y="145"
     inkscape:window-maximized="1"
     inkscape:current-layer="layer1"
     inkscape:showpageshadow="2"
     inkscape:deskcolor="#d1d1d1">
    <sodipodi:guide
       position="26.318868,15.734449"
       orientation="0,-1"
       id="guide2468"
       inkscape:locked="false" />
    <sodipodi:guide
       position="21.795664,45.464737"
       orientation="0,-1"
       id="guide2470"
       inkscape:locked="false" />
    <sodipodi:guide
       position="32.925266,1.9474919"
       orientation="0,-1"
       id="guide2472"
       inkscape:locked="false" />
    <sodipodi:guide
       position="35.681418,15.288595"
       orientation="0,-1"
       id="guide2474"
       inkscape:locked="false" />
  </sodipodi:namedview>
  <defs
     id="defs2" />
  <g
     inkscape:label="Layer 1"
     inkscape:groupmode="layer"
     id="layer1">
    <g
       aria-label="amg"
       id="text3067"
       style="font-size:39.6849px;line-height:1.25;font-family:'American Typewriter';-inkscape-font-specification:'American Typewriter, Normal';text-align:center;letter-spacing:-2.31246px;word-spacing:0px;text-anchor:middle;fill:#333333;stroke-width:0.930115"
       transform="matrix(1.3438087,0,0,1.0773668,-13.644905,-1.3715525)">
      <path
         d="M 15.502508,30.697202 20.424366,3.4332118 q 0.03875,-0.1550191 0.193774,-0.1550191 h 5.755085 q 0.155019,0 0.193774,0.1550191 l 4.728084,27.2639902 q 0.01938,0.193774 -0.15502,0.193774 h -4.398667 q -0.193774,0 -0.213152,-0.193774 l -0.426302,-2.906609 h -5.406293 l -0.426302,2.906609 q -0.01938,0.193774 -0.193774,0.193774 h -4.418046 q -0.155019,0 -0.155019,-0.193774 z m 7.770334,-18.292258 -1.78272,11.142 h 3.817347 l -1.627701,-11.142 -0.232529,-1.472682 z"
         style="font-family:Koulen;-inkscape-font-specification:'Koulen, Normal';fill:#333333"
         id="path9399" />
      <path
         d="m 35.298519,30.890976 h -4.495555 q -0.155019,0 -0.155019,-0.193774 l 0.07751,-27.2639902 q 0,-0.1550191 0.155019,-0.1550191 h 4.844348 q 0.155019,0 0.271283,0.1550191 l 3.623572,5.2318958 3.604195,-5.2318958 q 0.116265,-0.1550191 0.290661,-0.1550191 h 4.863725 q 0.174397,0 0.174397,0.1550191 l 0.07751,27.2639902 q 0,0.193774 -0.15502,0.193774 h -4.495554 q -0.15502,0 -0.15502,-0.193774 l -0.03875,-20.249374 -4.16614,6.045746 -4.127384,-6.045746 -0.03875,20.249374 q 0,0.193774 -0.155019,0.193774 z"
         style="font-family:Koulen;-inkscape-font-specification:'Koulen, Normal';fill:#333333"
         id="path9401" />
      <path
         d="m 56.082776,30.873518 q -2.15089,0 -3.875478,-1.033231 -1.743965,-1.03323 -2.809722,-2.78033 -1.046379,-1.747098 -1.046379,-3.907491 V 10.960344 q 0,-2.1040334 1.065757,-3.8323466 1.046379,-1.7470992 2.809721,-2.78033 1.763343,-1.0520167 3.856101,-1.0520167 2.189646,0 3.952988,1.0144448 1.763343,1.0332307 2.790345,2.7615439 1.046379,1.7283131 1.046379,3.8887046 v 1.765886 q 0,0.150287 -0.193774,0.150287 h -4.4568 q -0.155019,0 -0.155019,-0.150287 v -1.465309 q 0,-1.4653098 -0.852605,-2.4233964 -0.852606,-0.9580867 -2.131514,-0.9580867 -1.143266,0 -2.034626,0.9205146 -0.89136,0.9205147 -0.89136,2.1603915 v 12.192122 q 0,1.258663 0.871983,2.179177 0.871983,0.90173 2.054003,0.90173 1.278908,0 2.131514,-0.882943 0.852605,-0.901728 0.852605,-2.197964 v -1.897388 h -2.770967 q -0.213152,0 -0.213152,-0.18786 v -4.301995 q 0,-0.187861 0.213152,-0.187861 h 7.421541 q 0.155019,0 0.155019,0.187861 v 6.387243 q 0,2.160393 -1.046379,3.907491 -1.065757,1.7471 -2.809722,2.78033 -1.743965,1.033231 -3.933611,1.033231 z"
         style="font-family:Koulen;-inkscape-font-specification:'Koulen, Normal';fill:#333333;stroke-width:0.915811"
         id="path9403" />
    </g>
    <g
       id="g1777"
       transform="matrix(1.3437621,0,0,1.3437621,-12.549101,-10.213652)">
      <path
         d="m 19.060929,41.593047 h -1.957838 q -0.07628,0 -0.07628,-0.07006 v -8.183565 h -2.25448 q -0.08476,0 -0.08476,-0.07007 l 0.01695,-1.604483 q 0,-0.05605 0.0678,-0.05605 h 6.59393 q 0.09323,0 0.09323,0.05605 v 1.604483 q 0,0.07007 -0.0678,0.07007 h -2.279906 l 0.01695,8.183565 q 0,0.07006 -0.0678,0.07006 z"
         style="font-size:17.3578px;line-height:1.25;font-family:Koulen;-inkscape-font-specification:'Koulen, Normal';text-align:center;letter-spacing:-0.926608px;text-anchor:middle;stroke-width:0.369889"
         id="path9675" />
      <path
         d="m 27.050534,41.593047 h -5.610773 q -0.0678,0 -0.0678,-0.07006 l 0.01695,-9.858113 q 0,-0.05605 0.0678,-0.05605 h 5.576872 q 0.0678,0 0.0678,0.07007 v 1.604484 q 0,0.05605 -0.0678,0.05605 h -3.559705 v 2.242073 h 3.559705 q 0.0678,0 0.0678,0.05605 l 0.01695,1.625503 q 0,0.05605 -0.0678,0.05605 h -3.576655 v 2.508319 h 3.576655 q 0.0678,0 0.0678,0.07007 v 1.639515 q 0,0.05605 -0.0678,0.05605 z"
         style="font-size:17.3578px;line-height:1.25;font-family:Koulen;-inkscape-font-specification:'Koulen, Normal';text-align:center;letter-spacing:-0.926608px;text-anchor:middle;stroke-width:0.369889"
         id="path9677" />
      <path
         d="m 30.445821,41.593047 q -0.940779,0 -1.720524,-0.378731 -0.771269,-0.378731 -1.228946,-1.014459 -0.4492,-0.642492 -0.4492,-1.427006 l 0.01695,-4.321596 q 0,-0.77099 0.440725,-1.393191 0.440725,-0.628964 1.211995,-1.007696 0.779745,-0.385494 1.728999,-0.385494 0.966206,0 1.720524,0.371969 0.762794,0.371968 1.211995,1.007695 0.457677,0.628965 0.457677,1.406717 v 0.635728 q 0,0.05411 -0.0678,0.05411 h -1.949363 q -0.0678,0 -0.0678,-0.05411 v -0.635728 q 0,-0.459889 -0.372921,-0.791278 -0.372921,-0.331391 -0.932304,-0.331391 -0.61871,0 -0.949254,0.338153 -0.330544,0.338153 -0.330544,0.784516 v 4.321596 q 0,0.507229 0.372921,0.831856 0.372922,0.317865 0.906877,0.317865 0.559383,0 0.932304,-0.351681 0.372921,-0.358441 0.372921,-0.79804 V 38.13036 q 0,-0.05411 0.0678,-0.05411 h 1.966314 q 0.0678,0 0.0678,0.05411 v 0.642491 q 0,0.777752 -0.457677,1.420242 -0.466152,0.635728 -1.228946,1.021223 -0.762794,0.378731 -1.720523,0.378731 z"
         style="font-size:17.3578px;line-height:1.25;font-family:Koulen;-inkscape-font-specification:'Koulen, Normal';text-align:center;letter-spacing:-0.926608px;text-anchor:middle;stroke-width:0.363407"
         id="path9679" />
      <path
         d="m 44.010122,41.593047 h -1.966313 q -0.0678,0 -0.0678,-0.05605 v -1.625504 q 0,-0.05605 0.0678,-0.05605 h 1.966313 q 0.0678,0 0.0678,0.05605 v 1.625504 q 0,0.05605 -0.0678,0.05605 z"
         style="font-size:17.3578px;line-height:1.25;font-family:Koulen;-inkscape-font-specification:'Koulen, Normal';text-align:center;letter-spacing:-0.926608px;text-anchor:middle;fill:#3d5c91;fill-opacity:0;stroke-width:0.369889"
         id="path9683" />
      <path
         d="m 47.761983,41.579034 -3.110504,0.01401 q -0.08476,0 -0.08476,-0.07006 l 0.0339,-9.858114 q 0,-0.05605 0.0678,-0.05605 l 3.246112,-0.01401 q 0.966205,-0.02102 1.74595,0.364338 0.788221,0.385355 1.254373,1.043964 0.474627,0.651603 0.474627,1.443335 v 4.119808 q 0,0.826764 -0.483103,1.513399 -0.491578,0.679629 -1.305225,1.086004 -0.813647,0.39937 -1.839181,0.413383 z m 0.152559,-8.267643 -1.211995,0.01401 -0.01695,6.502011 h 1.076387 q 0.644137,0 1.084862,-0.371343 0.440726,-0.371344 0.440726,-0.889823 v -4.133821 q 0,-0.455422 -0.406824,-0.791732 -0.406823,-0.343318 -0.966205,-0.329305 z"
         style="font-size:17.3578px;line-height:1.25;font-family:Koulen;-inkscape-font-specification:'Koulen, Normal';text-align:center;letter-spacing:-0.926608px;text-anchor:middle;fill:#3d5c91;fill-opacity:1;stroke-width:0.369889"
         id="path9685" />
      <path
         d="m 56.691916,41.593047 h -5.610773 q -0.0678,0 -0.0678,-0.07006 l 0.01695,-9.858113 q 0,-0.05605 0.0678,-0.05605 h 5.576872 q 0.0678,0 0.0678,0.07007 v 1.604484 q 0,0.05605 -0.0678,0.05605 H 53.11526 v 2.242073 h 3.559705 q 0.0678,0 0.0678,0.05605 l 0.01695,1.625503 q 0,0.05605 -0.0678,0.05605 H 53.11526 v 2.508319 h 3.576655 q 0.0678,0 0.0678,0.07007 v 1.639515 q 0,0.05605 -0.0678,0.05605 z"
         style="font-size:17.3578px;line-height:1.25;font-family:Koulen;-inkscape-font-specification:'Koulen, Normal';text-align:center;letter-spacing:-0.926608px;text-anchor:middle;fill:#3d5c91;fill-opacity:1;stroke-width:0.369889"
         id="path9687" />
      <path
         d="m 60.612835,41.593047 h -2.101921 q -0.07628,0 -0.08476,-0.07006 L 56.027596,31.66487 q -0.01695,-0.05605 0.0678,-0.05605 h 1.966313 q 0.0678,0 0.08476,0.05605 l 1.423882,6.572075 1.38998,-6.572075 q 0.01695,-0.05605 0.08476,-0.05605 h 1.940887 q 0.09323,0 0.0678,0.05605 l -2.356188,9.858113 q -0.0085,0.07006 -0.08476,0.07006 z"
         style="font-size:17.3578px;line-height:1.25;font-family:Koulen;-inkscape-font-specification:'Koulen, Normal';text-align:center;letter-spacing:-0.926608px;text-anchor:middle;fill:#3d5c91;fill-opacity:1;stroke-width:0.369889"
         id="path9689" />
      <circle
         style="font-size:17.3578px;line-height:1.25;font-family:'American Typewriter';-inkscape-font-specification:'American Typewriter, Normal';text-align:center;letter-spacing:-0.926608px;text-anchor:middle;fill:#e69138;fill-opacity:1;stroke:none;stroke-width:0.226864;stroke-linecap:round;stroke-linejoin:round"
         id="path1003"
         cx="43.145752"
         cy="39.306927"
         r="2.2567413" />
      <path
         d="m 35.807399,41.593047 h -1.966314 q -0.0678,0 -0.0678,-0.07006 l 0.01695,-9.858113 q 0,-0.05605 0.08476,-0.05605 h 1.932412 q 0.08475,0 0.08475,0.05605 l -0.01695,3.902608 h 2.601975 v -3.902609 q 0,-0.05605 0.0678,-0.05605 h 1.932411 q 0.08476,0 0.08476,0.05605 l 0.0339,9.858113 q 0,0.07006 -0.08476,0.07006 h -1.949361 q -0.08476,0 -0.08476,-0.07006 v -4.217903 h -2.60197 v 4.217899 q 0,0.07006 -0.0678,0.07006 z"
         style="font-size:17.3578px;line-height:1.25;font-family:Koulen;-inkscape-font-specification:'Koulen, Normal';text-align:center;letter-spacing:-0.926608px;text-anchor:middle;stroke-width:0.369889"
         id="path9681" />
    </g>
  </g>
</svg>
